<svg xmlns="http://www.w3.org/2000/svg" viewBox="0 0 1200 760" fill="none"><title>burden</title><defs><radialGradient id="asset-burden-scan"><stop stop-color="#3A6EA5" stop-opacity=".02"></stop><stop offset="1" stop-color="#3A6EA5" stop-opacity=".3"></stop></radialGradient></defs><g data-assembly="true"><g transform="translate(600 387) scale(0.95)"><path data-draw="true" d="M-43 174 L-49 152 V-150 Q-49 -181 -28 -190 H9 Q26 -181 29 -161 L32 -70 46 -63 V-20 L51 -15 V131 L38 131 V157 L22 178 Z" pathLength="100" stroke-dasharray="100" stroke-dashoffset="0" fill="#315D7F" fill-opacity="0.82" stroke="#B8CDDE" stroke-width="2.4" stroke-linecap="round" stroke-linejoin="round"></path><path data-draw="true" d="M-41 148 V-147 Q-41 -172 -25 -180 H6 M-39 161 H21 L30 149 M-31 133 L-31 -152 M-15 133 L-15 -152 M-5 139 L18 -139" pathLength="100" stroke-dasharray="100" stroke-dashoffset="0" fill="none" fill-opacity="0.82" stroke="#B8CDDE" stroke-width="2.4" stroke-linecap="round" stroke-linejoin="round"></path><path data-draw="true" d="M19 -91 L25 -108 35 -106 38 -93 V-56 L33 -49 H19 Z M22 21 L28 13 40 19 V57 L34 66 H22 Z" pathLength="100" stroke-dasharray="100" stroke-dashoffset="0" fill="#466F8C" fill-opacity="0.82" stroke="#B8CDDE" stroke-width="2.4" stroke-linecap="round" stroke-linejoin="round"></path><path data-draw="true" d="M24 -87 H34 M24 -79 H34 M25 30 H36 M25 38 H36 M37 -29 H47 V-8 H37 Z M39 91 H48 V115 H39 Z" pathLength="100" stroke-dasharray="100" stroke-dashoffset="0" fill="none" fill-opacity="0.82" stroke="#B8CDDE" stroke-width="2.4" stroke-linecap="round" stroke-linejoin="round"></path><path data-draw="true" d="M-36 -161 H-12 M-36 -153 H-12 M-36 -145 H-12 M-36 118 H-12" pathLength="100" stroke-dasharray="100" stroke-dashoffset="0" fill="none" fill-opacity="0.82" stroke="#D4A94A" stroke-width="2.4" stroke-linecap="round" stroke-linejoin="round"></path><path d="M-23 101 V-131" stroke="#94B4CC" stroke-width="1" stroke-dasharray="5 5" fill="none"></path></g><g><g transform="translate(297 236) scale(0.38)"><path data-draw="true" d="M0 -150 Q34 -105 32 -64 V135 L0 153 -32 135 V-64 Q-34 -105 0 -150 Z" pathLength="100" stroke-dasharray="100" stroke-dashoffset="0" fill="#315D7F" fill-opacity="0.82" stroke="#B8CDDE" stroke-width="2.4" stroke-linecap="round" stroke-linejoin="round"></path><path data-draw="true" d="M-20 59 V-39 L0 -65 20 -39 V59 Z M-14 -75 H14 M-16 83 H16 M0 -115 V-83" pathLength="100" stroke-dasharray="100" stroke-dashoffset="0" fill="none" fill-opacity="0.82" stroke="#B8CDDE" stroke-width="2.4" stroke-linecap="round" stroke-linejoin="round"></path><path data-draw="true" d="M0 -5 V30 M-10 12 H10" pathLength="100" stroke-dasharray="100" stroke-dashoffset="0" fill="none" fill-opacity="0.82" stroke="#D4A94A" stroke-width="2.4" stroke-linecap="round" stroke-linejoin="round"></path></g><path data-draw="true" d="M332 236 L520 319" pathLength="100" stroke-dasharray="100" stroke-dashoffset="0" fill="none" fill-opacity="0.82" stroke="#D4A94A" stroke-width="2.4" stroke-linecap="round" stroke-linejoin="round"></path></g><g><g transform="translate(903 236) scale(0.38)"><path data-draw="true" d="M0 -150 Q34 -105 32 -64 V135 L0 153 -32 135 V-64 Q-34 -105 0 -150 Z" pathLength="100" stroke-dasharray="100" stroke-dashoffset="0" fill="#315D7F" fill-opacity="0.82" stroke="#B8CDDE" stroke-width="2.4" stroke-linecap="round" stroke-linejoin="round"></path><path data-draw="true" d="M-20 59 V-39 L0 -65 20 -39 V59 Z M-14 -75 H14 M-16 83 H16 M0 -115 V-83" pathLength="100" stroke-dasharray="100" stroke-dashoffset="0" fill="none" fill-opacity="0.82" stroke="#B8CDDE" stroke-width="2.4" stroke-linecap="round" stroke-linejoin="round"></path><path data-draw="true" d="M0 -5 V30 M-10 12 H10" pathLength="100" stroke-dasharray="100" stroke-dashoffset="0" fill="none" fill-opacity="0.82" stroke="#D4A94A" stroke-width="2.4" stroke-linecap="round" stroke-linejoin="round"></path></g><path data-draw="true" d="M868 236 L680 319" pathLength="100" stroke-dasharray="100" stroke-dashoffset="0" fill="none" fill-opacity="0.82" stroke="#D4A94A" stroke-width="2.4" stroke-linecap="round" stroke-linejoin="round"></path></g><g><g transform="translate(298 552) scale(0.38)"><path data-draw="true" d="M0 -150 Q34 -105 32 -64 V135 L0 153 -32 135 V-64 Q-34 -105 0 -150 Z" pathLength="100" stroke-dasharray="100" stroke-dashoffset="0" fill="#315D7F" fill-opacity="0.82" stroke="#B8CDDE" stroke-width="2.4" stroke-linecap="round" stroke-linejoin="round"></path><path data-draw="true" d="M-20 59 V-39 L0 -65 20 -39 V59 Z M-14 -75 H14 M-16 83 H16 M0 -115 V-83" pathLength="100" stroke-dasharray="100" stroke-dashoffset="0" fill="none" fill-opacity="0.82" stroke="#B8CDDE" stroke-width="2.4" stroke-linecap="round" stroke-linejoin="round"></path><path data-draw="true" d="M0 -5 V30 M-10 12 H10" pathLength="100" stroke-dasharray="100" stroke-dashoffset="0" fill="none" fill-opacity="0.82" stroke="#D4A94A" stroke-width="2.4" stroke-linecap="round" stroke-linejoin="round"></path></g><path data-draw="true" d="M333 552 L520 471" pathLength="100" stroke-dasharray="100" stroke-dashoffset="0" fill="none" fill-opacity="0.82" stroke="#D4A94A" stroke-width="2.4" stroke-linecap="round" stroke-linejoin="round"></path></g><g><g transform="translate(902 552) scale(0.38)"><path data-draw="true" d="M0 -150 Q34 -105 32 -64 V135 L0 153 -32 135 V-64 Q-34 -105 0 -150 Z" pathLength="100" stroke-dasharray="100" stroke-dashoffset="0" fill="#315D7F" fill-opacity="0.82" stroke="#B8CDDE" stroke-width="2.4" stroke-linecap="round" stroke-linejoin="round"></path><path data-draw="true" d="M-20 59 V-39 L0 -65 20 -39 V59 Z M-14 -75 H14 M-16 83 H16 M0 -115 V-83" pathLength="100" stroke-dasharray="100" stroke-dashoffset="0" fill="none" fill-opacity="0.82" stroke="#B8CDDE" stroke-width="2.4" stroke-linecap="round" stroke-linejoin="round"></path><path data-draw="true" d="M0 -5 V30 M-10 12 H10" pathLength="100" stroke-dasharray="100" stroke-dashoffset="0" fill="none" fill-opacity="0.82" stroke="#D4A94A" stroke-width="2.4" stroke-linecap="round" stroke-linejoin="round"></path></g><path data-draw="true" d="M867 552 L680 471" pathLength="100" stroke-dasharray="100" stroke-dashoffset="0" fill="none" fill-opacity="0.82" stroke="#D4A94A" stroke-width="2.4" stroke-linecap="round" stroke-linejoin="round"></path></g></g></svg>