<svg xmlns="http://www.w3.org/2000/svg" viewBox="0 0 1200 760" fill="none"><title>harbor</title><defs><radialGradient id="asset-harbor-scan"><stop stop-color="#3A6EA5" stop-opacity=".02"></stop><stop offset="1" stop-color="#3A6EA5" stop-opacity=".3"></stop></radialGradient></defs><g data-assembly="true"><path data-draw="true" d="M260 553 H940 L914 531 H289 Z M290 522 H913 V495 H290 Z M354 494 V298 H418 V494 M781 494 V298 H845 V494 M470 494 V307 H731 V494" pathLength="100" stroke-dasharray="100" stroke-dashoffset="0" fill="#294D69" fill-opacity="0.82" stroke="#B8CDDE" stroke-width="2.4" stroke-linecap="round" stroke-linejoin="round"></path><path data-draw="true" d="M343 298 Q345 247 386 222 Q427 247 429 298 Z M771 298 Q773 247 813 222 Q855 247 856 298 Z M480 306 Q491 221 601 181 Q714 221 724 306 Z" pathLength="100" stroke-dasharray="100" stroke-dashoffset="0" fill="#426B89" fill-opacity="0.82" stroke="#B8CDDE" stroke-width="2.4" stroke-linecap="round" stroke-linejoin="round"></path><path data-draw="true" d="M539 248 V177 Q539 136 601 99 Q663 136 663 177 V249 M567 199 H635 M586 141 V220 M615 141 V220" pathLength="100" stroke-dasharray="100" stroke-dashoffset="0" fill="none" fill-opacity="0.82" stroke="#B8CDDE" stroke-width="2.4" stroke-linecap="round" stroke-linejoin="round"></path><path data-draw="true" d="M372 374 V333 Q385 312 401 333 V374 M795 374 V333 Q810 312 828 333 V374 M497 421 V355 Q512 333 528 355 V421 M671 421 V355 Q687 333 704 355 V421 M565 494 V398 Q601 354 637 398 V494 M543 326 H659" pathLength="100" stroke-dasharray="100" stroke-dashoffset="0" fill="none" fill-opacity="0.82" stroke="#D4A94A" stroke-width="2.4" stroke-linecap="round" stroke-linejoin="round"></path><path data-draw="true" d="M313 558 Q410 619 600 619 Q790 619 887 558 M255 589 Q412 671 600 671 Q788 671 945 589" pathLength="100" stroke-dasharray="100" stroke-dashoffset="0" fill="none" fill-opacity="0.82" stroke="#B8CDDE" stroke-width="2.4" stroke-linecap="round" stroke-linejoin="round"></path></g></svg>