<svg xmlns="http://www.w3.org/2000/svg" viewBox="0 0 600 440" fill="none" stroke="#F4F7FA" stroke-width="4" stroke-linecap="round" stroke-linejoin="round"><title>crown</title><path d="M160 153 L221 201 300 109 379 201 440 153 411 306 H189 Z" fill="#D4A94A" fill-opacity="0.42" stroke="#D4A94A"/><path d="M190 306 H411 V332 H190 Z M221 252 H380" fill="none" fill-opacity="0" stroke="#F4F7FA"/><path d="M 149 146 a 11 11 0 1 0 22 0 a 11 11 0 1 0 -22 0" fill="#D4A94A" fill-opacity="0.42" stroke="#D4A94A"/><path d="M 289 99 a 11 11 0 1 0 22 0 a 11 11 0 1 0 -22 0" fill="#D4A94A" fill-opacity="0.42" stroke="#D4A94A"/><path d="M 429 146 a 11 11 0 1 0 22 0 a 11 11 0 1 0 -22 0" fill="#D4A94A" fill-opacity="0.42" stroke="#D4A94A"/></svg>