<svg xmlns="http://www.w3.org/2000/svg" viewBox="0 0 600 200" fill="none"><title>carrier profile</title><g stroke="#C4D5E3" stroke-width="2.2" stroke-linecap="round" stroke-linejoin="round"><path data-vessel-outline="true" d="M25 151 L55 136 L564 136 L578 151 L552 180 L98 180 L56 172 Z" fill="#3A6EA5"></path><path d="M56 157 L564 157 M95 180 L552 180" fill="none" stroke="#87A9C6"></path><path d="M31 132 L79 112 Q89 109 109 112 L576 124 L578 138 L25 138 Z" fill="#6D8FA9"></path><path d="M190 124 L190 89 L208 77 L249 77 L267 91 L267 124 M368 124 L368 82 L385 72 L428 72 L444 87 L444 124" fill="#31566F"></path><path d="M196 83 L258 83 L267 94 L191 94 Z M374 79 L435 79 L444 90 L368 90 Z" fill="#A4BED0"></path><path d="M215 77 L215 36 L225 36 L225 77 M397 72 L397 22 L407 22 L407 72" fill="#567A96"></path><path d="M220 36 L203 52 L235 52 M402 24 L385 45 L419 45 M205 112 L253 112 M382 111 L430 111" fill="none"></path><path d="M99 120 L178 121 M283 123 L353 124 M461 127 L550 128" stroke="#E1E8ED" stroke-dasharray="18 10"></path><path d="M114 162 v5" stroke="#193C59"></path><path d="M151 162 v5" stroke="#193C59"></path><path d="M188 162 v5" stroke="#193C59"></path><path d="M225 162 v5" stroke="#193C59"></path><path d="M262 162 v5" stroke="#193C59"></path><path d="M299 162 v5" stroke="#193C59"></path><path d="M336 162 v5" stroke="#193C59"></path><path d="M373 162 v5" stroke="#193C59"></path><path d="M410 162 v5" stroke="#193C59"></path><path d="M447 162 v5" stroke="#193C59"></path><path d="M484 162 v5" stroke="#193C59"></path><path d="M521 162 v5" stroke="#193C59"></path></g></svg>
