<svg xmlns="http://www.w3.org/2000/svg" viewBox="42 0 116 560" width="116" height="560" fill="none" role="img" aria-labelledby="title description"><title id="title">battle plan</title><desc id="description">Transparent static export of BattlePlan. The same geometry is animated in TransformationChapter using the official @remotion/gsap useGsapTimeline() hook.</desc><g stroke="#F4F7FA" stroke-width="1.7" stroke-linejoin="round" stroke-linecap="round"><path data-draw="true" d="M100 10 C81 48 65 126 63 206 L67 449 Q74 509 100 548 Q126 509 133 449 L137 206 C135 126 119 48 100 10Z" fill="#3A6EA5"></path><path d="M100 27 C84 65 75 130 74 198 L78 444 Q84 489 100 523 Q116 489 122 444 L126 198 C125 130 116 65 100 27Z" fill="#748C9C" stroke="#BCCAD4"></path><path d="M85 244 V203 L92 183 H108 L115 203 V244Z M84 255 H116 V317 H84Z M84 380 V333 H116 V380Z" fill="#23435B"></path><path d="M78 218 H122 V233 H78Z M82 255 H118 M90 261 V309 M110 261 V309" fill="none" stroke="#C4D6E1"></path><rect x="87" y="277" width="26" height="35" rx="7" fill="#132A40"></rect><rect x="87" y="339" width="26" height="31" rx="7" fill="#132A40"></rect><g><path d="M82 115 Q100 102 118 115 V137 H82Z" fill="#567890"></path><path d="M88 115 v-42" fill="none" stroke-width="3"></path><path d="M96 115 v-42" fill="none" stroke-width="3"></path><path d="M104 115 v-42" fill="none" stroke-width="3"></path><path d="M112 115 v-42" fill="none" stroke-width="3"></path></g><g><path d="M82 161 Q100 148 118 161 V183 H82Z" fill="#567890"></path><path d="M95 161 v-42" fill="none" stroke-width="3"></path><path d="M105 161 v-42" fill="none" stroke-width="3"></path></g><g><path d="M82 417 Q100 404 118 417 V439 H82Z" fill="#567890"></path><path d="M88 437 v42" fill="none" stroke-width="3"></path><path d="M96 437 v42" fill="none" stroke-width="3"></path><path d="M104 437 v42" fill="none" stroke-width="3"></path><path d="M112 437 v42" fill="none" stroke-width="3"></path></g><g><rect x="68" y="240" width="14" height="22" rx="3" fill="#496E8B"></rect><rect x="118" y="240" width="14" height="22" rx="3" fill="#496E8B"></rect><path d="M72 247 h-16 M72 253 h-16 M128 247 h16 M128 253 h16" stroke-width="2"></path></g><g><rect x="68" y="315" width="14" height="22" rx="3" fill="#496E8B"></rect><rect x="118" y="315" width="14" height="22" rx="3" fill="#496E8B"></rect><path d="M72 322 h-16 M72 328 h-16 M128 322 h16 M128 328 h16" stroke-width="2"></path></g><g><rect x="68" y="382" width="14" height="22" rx="3" fill="#496E8B"></rect><rect x="118" y="382" width="14" height="22" rx="3" fill="#496E8B"></rect><path d="M72 389 h-16 M72 395 h-16 M128 389 h16 M128 395 h16" stroke-width="2"></path></g><path d="M86 214 H114 M100 192 V243 M72 465 H128 M82 474 H118" fill="none" stroke="#D4A94A"></path></g></svg>
