<svg xmlns="http://www.w3.org/2000/svg" viewBox="-8 10 644 182" width="644" height="182" fill="none" role="img" aria-labelledby="title description"><title id="title">capital ship fleet</title><desc id="description">Transparent static export of CapitalShip. The same geometry is animated in WorldWarChapter using the official @remotion/gsap useGsapTimeline() hook.</desc><g stroke-linecap="round" stroke-linejoin="round"><path data-war-ink="true" pathLength="100" d="M22 132 L568 132 L604 115 L588 151 Q554 165 503 168 L66 164 Q40 161 22 132Z" fill="#F4F7FA" stroke="#8FAFC7" stroke-width="2"></path><path d="M40 137 H583 L568 147 H52Z" fill="#3A6EA5"></path><path d="M191 126 V111 H241 V87 H278 V67 H326 V75 H345 V108 H397 V126Z" fill="#BDD0DF" stroke="#0B1A2E" stroke-width="2"></path><path d="M235 107 V70 H257 V107 M282 93 V52 H306 V93" fill="#758D9F" stroke="#0B1A2E" stroke-width="2"></path><path d="M231 70 H261 M278 52 H310" stroke="#F4F7FA" stroke-width="5"></path><path d="M335 126 V37 M334 44 L307 108 M335 44 L362 108 M323 63 H347 M324 75 H349 M335 37 V22 M319 37 H351" stroke="#8FAFC7" stroke-width="2.4" fill="none"></path><path d="M409 129 L415 111 H452 L461 129 M480 130 L486 116 H522 L533 130 M95 130 L103 115 H141 L151 130 M157 120 L165 103 H201 L211 120" fill="#93AFC5" stroke="#0B1A2E" stroke-width="2"></path><g data-war-guns="true"><path d="M451 116 L495 111 M519 121 L569 115 M106 120 L59 114 M168 108 L117 102" fill="none" stroke="#F4F7FA" stroke-width="4"></path><path d="M451 121 L494 117 M519 126 L567 121 M106 125 L61 120 M168 113 L117 108" fill="none" stroke="#8FAFC7" stroke-width="2.3"></path></g><path data-war-wake="true" d="M14 170 Q91 165 179 172 T375 170 T609 169 M4 179 Q85 173 190 179 T404 178 T625 176" fill="none" stroke="#8FAFC7" stroke-width="1.3" opacity=".55"></path></g></svg>
